<svg xmlns="http://www.w3.org/2000/svg" width="18.79" height="23.135" viewBox="0 0 18.79 23.135"><path d="M222.94,154.7a.542.542,0,0,0-.542.542v10.24a.542.542,0,1,0,1.084,0v-10.24A.542.542,0,0,0,222.94,154.7Zm0,0" transform="translate(-210.348 -146.321)"/><path d="M104.94,154.7a.542.542,0,0,0-.542.542v10.24a.542.542,0,1,0,1.084,0v-10.24A.542.542,0,0,0,104.94,154.7Zm0,0" transform="translate(-98.741 -146.321)"/><path d="M1.536,6.886V20.235A2.989,2.989,0,0,0,2.33,22.3a2.668,2.668,0,0,0,1.936.837H14.517a2.667,2.667,0,0,0,1.936-.837,2.989,2.989,0,0,0,.795-2.062V6.886a2.07,2.07,0,0,0-.531-4.07H13.943V2.139A2.128,2.128,0,0,0,11.8,0H6.986a2.128,2.128,0,0,0-2.146,2.14v.677H2.067a2.07,2.07,0,0,0-.531,4.07ZM14.517,22.05H4.266a1.716,1.716,0,0,1-1.647-1.815V6.934H16.164v13.3a1.716,1.716,0,0,1-1.647,1.815ZM5.924,2.139A1.044,1.044,0,0,1,6.986,1.082H11.8a1.044,1.044,0,0,1,1.062,1.057v.677H5.924ZM2.067,3.9h14.65a.975.975,0,1,1,0,1.951H2.067a.975.975,0,1,1,0-1.951Zm0,0" transform="translate(0.003 0.002)"/><path d="M163.94,154.7a.542.542,0,0,0-.542.542v10.24a.542.542,0,1,0,1.084,0v-10.24A.542.542,0,0,0,163.94,154.7Zm0,0" transform="translate(-154.545 -146.321)"/></svg>